<?xml version="1.0" standalone="no"?>
<!DOCTYPE svg PUBLIC "-//W3C//DTD SVG 20010904//EN"
 "http://www.w3.org/TR/2001/REC-SVG-20010904/DTD/svg10.dtd">
<svg version="1.0" xmlns="http://www.w3.org/2000/svg"
 width="500.000000pt" height="500.000000pt" viewBox="0 0 500.000000 500.000000"
 preserveAspectRatio="xMidYMid meet">
<metadata>
Created by potrace 1.14, written by Peter Selinger 2001-2017
</metadata>
<g transform="translate(0.000000,500.000000) scale(0.100000,-0.100000)"
fill="#000000" stroke="none">
<path d="M2417 4444 c-1 -1 -40 -5 -87 -8 -47 -3 -96 -8 -110 -11 -14 -3 -38
-7 -55 -10 -16 -3 -43 -8 -60 -11 -43 -8 -246 -65 -264 -74 -9 -4 -43 -18 -76
-31 -109 -41 -397 -203 -425 -238 -3 -3 -25 -22 -50 -41 -167 -129 -364 -355
-469 -540 -81 -142 -158 -326 -197 -470 -59 -216 -81 -472 -60 -685 6 -58 31
-223 40 -260 137 -560 483 -1012 981 -1280 162 -87 390 -169 530 -190 22 -4
60 -11 84 -16 123 -27 422 -29 588 -3 129 19 356 81 438 118 17 8 62 29 100
46 269 123 544 346 729 593 75 99 144 214 199 327 44 91 130 332 141 395 2 17
12 67 20 112 18 101 29 222 29 328 0 79 -12 265 -18 275 -1 3 -6 28 -9 55 -15
109 -66 289 -118 414 -279 670 -907 1134 -1621 1197 -63 6 -256 12 -260 8z
m208 -248 c50 -4 101 -8 115 -11 14 -3 39 -7 55 -10 199 -29 440 -125 635
-252 120 -79 161 -113 280 -233 155 -157 270 -327 353 -521 37 -85 83 -221 92
-269 3 -14 7 -35 10 -47 3 -13 7 -33 10 -45 3 -13 7 -45 10 -73 3 -27 8 -68
10 -90 6 -60 6 -232 0 -300 -9 -101 -43 -265 -75 -365 -58 -178 -180 -405
-293 -544 -55 -68 -212 -225 -262 -261 -22 -17 -42 -33 -45 -36 -14 -18 -189
-125 -267 -163 -131 -65 -303 -124 -412 -142 -18 -3 -43 -8 -55 -10 -96 -22
-325 -31 -436 -19 -96 11 -116 14 -140 19 -14 3 -36 8 -50 10 -167 28 -407
125 -575 234 -175 112 -353 281 -467 442 -143 202 -263 483 -292 685 -3 22 -8
51 -11 65 -20 104 -20 371 1 482 3 18 7 42 9 53 14 94 37 179 90 323 21 59
119 256 135 272 3 3 32 46 65 95 73 109 266 306 381 388 182 128 411 237 574
272 8 2 44 10 80 19 72 16 112 22 215 32 39 3 71 7 72 7 2 3 84 -1 188 -7z"/>
<path d="M1815 3223 c-160 -53 -216 -256 -107 -383 93 -110 254 -118 353 -18
52 52 71 99 72 173 1 162 -164 280 -318 228z"/>
<path d="M3055 3230 c-155 -36 -235 -211 -159 -349 80 -149 260 -175 379 -56
78 78 96 174 51 270 -47 102 -165 160 -271 135z"/>
<path d="M1475 2091 c-31 -13 -56 -46 -65 -85 -10 -46 16 -103 97 -211 171
-227 414 -387 703 -462 76 -20 126 -25 255 -28 88 -2 185 0 215 6 30 6 69 12
85 15 119 22 303 102 436 189 142 94 381 365 389 440 9 80 -28 133 -99 142
-62 8 -97 -14 -151 -97 -25 -38 -48 -70 -52 -70 -5 0 -8 -5 -8 -11 0 -6 -33
-43 -72 -82 -132 -131 -307 -229 -478 -268 -25 -6 -54 -13 -65 -16 -11 -2 -72
-6 -135 -8 -102 -3 -141 1 -254 21 -42 8 -162 52 -221 81 -150 75 -304 212
-393 348 -26 41 -59 81 -74 89 -28 17 -80 20 -113 7z"/>
</g>
</svg>
